<?xml version="1.0" encoding="UTF-8"?>
<svg xmlns="http://www.w3.org/2000/svg" xmlns:xlink="http://www.w3.org/1999/xlink" viewBox="0 0 40 40" width="40px" height="40px">
<g id="surface5649316">
<path style=" stroke:none;fill-rule:nonzero;fill:rgb(100%,100%,100%);fill-opacity:1;" d="M 20 4 C 11.164062 4 4 11.164062 4 20 C 4 28.019531 9.910156 34.644531 17.609375 35.800781 L 17.609375 24.238281 L 13.648438 24.238281 L 13.648438 20.035156 L 17.609375 20.035156 L 17.609375 17.234375 C 17.609375 12.601562 19.867188 10.570312 23.714844 10.570312 C 25.558594 10.570312 26.535156 10.707031 26.996094 10.769531 L 26.996094 14.4375 L 24.371094 14.4375 C 22.734375 14.4375 22.164062 15.988281 22.164062 17.734375 L 22.164062 20.035156 L 26.957031 20.035156 L 26.308594 24.238281 L 22.164062 24.238281 L 22.164062 35.835938 C 29.976562 34.777344 36 28.101562 36 20 C 36 11.164062 28.835938 4 20 4 Z M 20 4 "/>
</g>
</svg>
