<?xml version="1.0" encoding="UTF-8"?>
<svg xmlns="http://www.w3.org/2000/svg" xmlns:xlink="http://www.w3.org/1999/xlink" viewBox="0 0 40 40" width="40px" height="40px">
<g id="surface5648122">
<path style=" stroke:none;fill-rule:nonzero;fill:rgb(100%,100%,100%);fill-opacity:1;" d="M 13.332031 5 C 8.738281 5 5 8.738281 5 13.332031 L 5 26.667969 C 5 31.261719 8.738281 35 13.332031 35 L 26.667969 35 C 31.261719 35 35 31.261719 35 26.667969 L 35 13.332031 C 35 8.738281 31.261719 5 26.667969 5 Z M 13.332031 8.332031 L 26.667969 8.332031 C 29.421875 8.332031 31.667969 10.578125 31.667969 13.332031 L 31.667969 26.667969 C 31.667969 29.421875 29.421875 31.667969 26.667969 31.667969 L 13.332031 31.667969 C 10.578125 31.667969 8.332031 29.421875 8.332031 26.667969 L 8.332031 13.332031 C 8.332031 10.578125 10.578125 8.332031 13.332031 8.332031 Z M 28.332031 10 C 27.414062 10 26.667969 10.746094 26.667969 11.667969 C 26.667969 12.585938 27.414062 13.332031 28.332031 13.332031 C 29.253906 13.332031 30 12.585938 30 11.667969 C 30 10.746094 29.253906 10 28.332031 10 Z M 20 11.667969 C 15.40625 11.667969 11.667969 15.40625 11.667969 20 C 11.667969 24.59375 15.40625 28.332031 20 28.332031 C 24.59375 28.332031 28.332031 24.59375 28.332031 20 C 28.332031 15.40625 24.59375 11.667969 20 11.667969 Z M 20 15 C 22.757812 15 25 17.242188 25 20 C 25 22.757812 22.757812 25 20 25 C 17.242188 25 15 22.757812 15 20 C 15 17.242188 17.242188 15 20 15 Z M 20 15 "/>
</g>
</svg>
